# xmcd CD database file generated by OrangeCD 6.3
#
# Track frame offsets:
#	150
#	16103
#	36805
#
# Disc length: 793 seconds
#
# Revision: 0
# Processed by: cddbd v1.5.2PL0 Copyright (c) Steve Scherf et al.
# Submitted via: OrangeCD 6.3
#
DISCID=16031703
DTITLE=DJ K-Gee - Upside Down
DYEAR=2002
DGENRE=
TTITLE0=Upside Down (Radio Edit)
TTITLE1=Upside Down
TTITLE2=Knocking Motherf*****s Out!
EXTD=
EXTT0=
EXTT1=
EXTT2=
PLAYORDER=
